#!OML:ASF I:\Actors\actors\Patient Classification 2\Patient 1\Session 1\actor1.ASF
:FULLY-SPECIFIED
:DEGREES
839
root -1.34631 18.4255 6.72652 -4.36118 -2.94202 -3.23267
lowerback 9.21595 0.17949 2.76765
upperback 1.52791 0.5939 2.15583
thorax -3.57585 0.271114 0.60655
lowerneck -14.4288 -0.182996 1.20661
upperneck 11.1303 -1.32533 5.81162
head 5.77415 -0.141538 1.52416
rclavicle 1.13059e-015 2.0276e-014
rhumerus -46.5816 -5.99223 -83.8913
rradius 35.5734
rwrist 8.14084
rhand -4.2201 -37.3932
rfingers 7.12502
rthumb 21.5426 -66.2151
lclavicle 1.13059e-015 2.0276e-014
lhumerus -42.9107 13.1733 85.8163
lradius 33.0947
lwrist -3.62506
lhand -4.48097 -15.2836
lfingers 7.12502
lthumb 21.292 13.5668
rfemur 16.8982 4.84634 20.009
rtibia 6.99722e-014
rfoot -20.2202 -11.2542
rtoes -12.9485
lfemur 1.55174 -1.21895 -9.27128
ltibia 26.6019
lfoot -23.4442 8.9251
ltoes -58.7304
840
root -1.3475 18.4176 6.72837 -4.31777 -2.84889 -3.31656
lowerback 9.28865 0.190304 2.90878
upperback 1.58772 0.623229 2.15408
thorax -3.55227 0.284508 0.521702
lowerneck -14.3414 -0.273503 1.07238
upperneck 10.8465 -1.40267 5.8241
head 5.67241 -0.1925 1.54099
rclavicle 1.66482e-015 4.77083e-015
rhumerus -48.5997 -6.79249 -84.366
rradius 36.2015
rwrist 7.20969
rhand -4.04507 -40.4677
rfingers 7.12502
rthumb 21.7107 -69.2703
lclavicle 1.66482e-015 4.77083e-015
lhumerus -44.3778 14.5265 85.0329
lradius 32.4704
lwrist -5.3135
lhand -4.93814 -13.8311
lfingers 7.12502
lthumb 20.8528 15.0682
rfemur 16.8819 4.74997 20.0693
rtibia 3.81667e-014
rfoot -20.1648 -11.1059
rtoes -12.4522
lfemur 1.50016 -1.3772 -9.20107
ltibia 26.6049
lfoot -23.5152 8.93574
ltoes -58.7323
841
root -1.34561 18.4143 6.72765 -4.27968 -2.74328 -3.44614
lowerback 9.42975 0.17313 3.13533
upperback 1.61302 0.628527 2.15026
thorax -3.60181 0.284076 0.389448
lowerneck -14.3936 -0.381061 0.939255
upperneck 10.8077 -1.52616 5.86771
head 5.67317 -0.254933 1.56519
rclavicle -2.78299e-015 3.18055e-014
rhumerus -50.5393 -7.52677 -84.6952
rradius 36.9542
rwrist 5.1865
rhand -1.32708 -43.3458
rfingers 7.12502
rthumb 24.3187 -71.8231
lclavicle -2.78299e-015 3.18055e-014
lhumerus -45.8832 15.3474 84.2837
lradius 33.0278
lwrist -1.90091
lhand -7.93119 -11.1368
lfingers 7.12502
lthumb 17.975 18.0526
rfemur 16.8637 4.63805 20.1742
rtibia -3.49861e-014
rfoot -20.0913 -11.0241
rtoes -12.1241
lfemur 1.41097 -1.49144 -9.08072
ltibia 26.6388
lfoot -23.5194 9.00142
ltoes -58.8715
842
root -1.3428 18.4136 6.72362 -4.34762 -2.60708 -3.51912
lowerback 9.72988 0.125458 3.28262
upperback 1.61529 0.593934 2.12448
thorax -3.765 0.263139 0.283335
lowerneck -14.3425 -0.469892 0.878636
upperneck 10.7465 -1.63419 5.90656
head 5.64901 -0.309423 1.57716
rclavicle 8.15017e-015 -2.78299e-014
rhumerus -52.1986 -8.47383 -84.6
rradius 38.725
rwrist -7.55605
rhand -0.560843 -47.7573
rfingers 7.12502
rthumb 25.0531 -76.1341
lclavicle 8.15017e-015 -2.78299e-014
lhumerus -47.4619 16.0839 83.3644
lradius 33.6134
lwrist 2.21581
lhand -10.1416 -11.5347
lfingers 7.12502
lthumb 15.8473 17.8367
rfemur 16.9393 4.49875 20.2321
rtibia -2.22639e-014
rfoot -20.0538 -11.0181
rtoes -11.9615
lfemur 1.42513 -1.69514 -9.03839
ltibia 26.6772
lfoot -23.5586 8.9745
ltoes -58.5723
843
root -1.34096 18.4143 6.71635 -4.4926 -2.44757 -3.53569
lowerback 10.1743 0.0787605 3.33353
upperback 1.56944 0.560305 2.09519
thorax -4.05966 0.241795 0.227483
lowerneck -13.9962 -0.517983 0.822375
upperneck 10.5023 -1.66959 5.94839
head 5.51603 -0.337768 1.59455
rclavicle 1.68967e-015 -2.78299e-015
rhumerus -53.8649 -9.77626 -83.8341
rradius 40.7339
rwrist -17.7122
rhand -6.66516 -46.1083
rfingers 7.12502
rthumb 19.1928 -75.1813
lclavicle 1.68967e-015 -2.78299e-015
lhumerus -49.0645 16.6988 82.3059
lradius 34.7503
lwrist 4.49616
lhand -9.11434 -12.727
lfingers 7.12502
lthumb 16.8364 16.5631
rfemur 17.0808 4.33892 20.2428
rtibia -3.97569e-014
rfoot -20.018 -11.0789
rtoes -11.9661
lfemur 1.51075 -1.84613 -9.03564
ltibia 26.6935
lfoot -23.5509 8.86084
ltoes -58.2183
844
root -1.34135 18.417 6.70874 -4.62634 -2.32371 -3.54291
lowerback 10.5541 0.0597963 3.31871
upperback 1.53629 0.553291 2.07989
thorax -4.30556 0.235238 0.220003
lowerneck -13.6794 -0.573844 0.796704
upperneck 10.2925 -1.71621 5.92853
head 5.39843 -0.373544 1.58698
rclavicle 7.23079e-015 -1.94809e-014
rhumerus -55.3523 -11.3267 -82.3693
rradius 41.7046
rwrist -17.8182
rhand -6.5528 -43.2948
rfingers 7.12502
rthumb 19.3009 -72.357
lclavicle 7.23079e-015 -1.94809e-014
lhumerus -50.298 16.4416 82.0196
lradius 36.29
lwrist 4.01813
lhand -7.91371 -11.6794
lfingers 7.12502
lthumb 17.9919 17.5084
rfemur 17.2114 4.21348 20.2537
rtibia -1.27222e-014
rfoot -19.9427 -11.161
rtoes -12.2662
lfemur 1.56948 -1.8147 -9.01246
ltibia 26.6832
lfoot -23.3759 8.8733
ltoes -58.6128
845
root -1.34359 18.4241 6.70257 -4.66113 -2.25164 -3.55804
lowerback 10.7596 0.0374463 3.2274
upperback 1.50271 0.525486 2.09631
thorax -4.45653 0.221059 0.292062
lowerneck -13.5327 -0.610996 0.77304
upperneck 10.2846 -1.75756 5.93041
head 5.37277 -0.397194 1.58768
rclavicle 6.21202e-016 -2.74323e-014
rhumerus -56.5029 -12.4153 -80.8261
rradius 41.9019
rwrist -10.7727
rhand -3.95165 -40.2872
rfingers 7.12502
rthumb 21.8004 -69.0794
lclavicle 6.21202e-016 -2.74323e-014
lhumerus -51.1907 16.0261 81.7569
lradius 37.2116
lwrist 3.74381
lhand -6.24287 -11.7824
lfingers 7.12502
lthumb 19.5989 17.2497
rfemur 17.2392 4.13917 20.2703
rtibia 1.74931e-014
rfoot -19.8965 -11.1914
rtoes -12.3679
lfemur 1.55 -1.74422 -8.96763
ltibia 26.6559
lfoot -23.2043 8.82814
ltoes -58.8579
846
root -1.34441 18.4331 6.69653 -4.63032 -2.20936 -3.59884
lowerback 10.838 0.00165562 3.14729
upperback 1.46919 0.475634 2.13471
thorax -4.53715 0.196934 0.384378
lowerneck -13.3605 -0.605995 0.775224
upperneck 10.3011 -1.74422 5.90553
head 5.34845 -0.394924 1.58056
rclavicle 6.85807e-015 -4.17448e-014
rhumerus -57.1699 -12.5983 -79.8038
rradius 41.8702
rwrist -4.42349
rhand -3.8251 -37.3568
rfingers 7.12502
rthumb 21.9219 -66.1348
lclavicle 6.85807e-015 -4.17448e-014
lhumerus -51.7294 15.4626 81.6803
lradius 38.091
lwrist 3.42029
lhand -4.0019 -10.5983
lfingers 7.12502
lthumb 21.7521 18.1995
rfemur 17.1927 4.09434 20.3036
rtibia -2.22639e-014
rfoot -19.8735 -11.1611
rtoes -11.8995
lfemur 1.49643 -1.74181 -8.90892
ltibia 26.619
lfoot -23.1445 8.72066
ltoes -58.6835
847
root -1.34265 18.4418 6.69076 -4.55241 -2.19694 -3.63776
lowerback 10.799 -0.0142543 3.09417
upperback 1.44995 0.448783 2.1683
thorax -4.53676 0.184717 0.453265
lowerneck -13.1621 -0.589842 0.840593
upperneck 10.2968 -1.71552 5.80342
head 5.31151 -0.389062 1.54008
rclavicle -4.84538e-016 1.35174e-014
rhumerus -57.3481 -12.0787 -79.3197
rradius 41.72
rwrist 0.716317
rhand -4.68051 -35.4852
rfingers 7.12502
rthumb 21.1004 -64.3571
lclavicle -4.84538e-016 1.35174e-014
lhumerus -51.9867 14.9409 81.5293
lradius 38.4581
lwrist 2.32458
lhand -1.26548 -11.403
lfingers 7.12502
lthumb 24.3777 17.0664
rfemur 17.0922 4.08096 20.3287
rtibia 1.74931e-014
rfoot -19.8097 -11.1702
rtoes -11.795
lfemur 1.41698 -1.76012 -8.87912
ltibia 26.5741
lfoot -23.1094 8.75157
ltoes -58.6679
